<?xml version="1.0" encoding="UTF-8"?> <svg xmlns="http://www.w3.org/2000/svg" width="120" height="120" viewBox="0 0 120 120" fill="none"> <circle cx="60" cy="60" r="60" fill="#FF5533"></circle> <path d="M88.4282 35H30.5593C29.6156 35.001 28.7109 35.3774 28.0436 36.0467C27.3764 36.7159 27.001 37.6232 27 38.5696V81.4304C27.0011 82.3768 27.3764 83.2841 28.0436 83.9533C28.7109 84.6225 29.6156 84.9989 30.5593 85H88.4282C89.3732 84.9994 90.2794 84.6236 90.9488 83.9546C91.6181 83.2857 91.9961 82.3781 92 81.4304V38.5696C91.9961 37.6219 91.6182 36.7143 90.9488 36.0454C90.2794 35.3764 89.3732 35.0006 88.4282 35V35ZM50.034 39.1139C50.5332 39.1139 51.0213 39.2624 51.4364 39.5406C51.8515 39.8188 52.1751 40.2142 52.3661 40.6768C52.5572 41.1393 52.6072 41.6484 52.5098 42.1395C52.4124 42.6306 52.1719 43.0817 51.8189 43.4357C51.4659 43.7898 51.0161 44.0309 50.5265 44.1286C50.0368 44.2263 49.5292 44.1761 49.068 43.9845C48.6067 43.7929 48.2125 43.4684 47.9351 43.0521C47.6578 42.6357 47.5097 42.1463 47.5097 41.6456C47.5117 40.9747 47.7782 40.3319 48.2512 39.8576C48.7242 39.3832 49.3651 39.1159 50.034 39.1139V39.1139ZM42.4612 39.1139C42.9604 39.1139 43.4485 39.2624 43.8636 39.5406C44.2787 39.8188 44.6022 40.2142 44.7933 40.6768C44.9843 41.1394 45.0343 41.6484 44.9369 42.1395C44.8395 42.6306 44.5991 43.0817 44.2461 43.4357C43.8931 43.7898 43.4433 44.0309 42.9536 44.1286C42.464 44.2263 41.9564 44.1761 41.4952 43.9845C41.0339 43.7929 40.6397 43.4684 40.3623 43.0521C40.0849 42.6358 39.9369 42.1463 39.9369 41.6456C39.9388 40.9747 40.2054 40.3319 40.6784 39.8576C41.1514 39.3832 41.7923 39.1159 42.4612 39.1139V39.1139ZM34.8884 39.1139C35.3876 39.1139 35.8756 39.2624 36.2908 39.5406C36.7059 39.8188 37.0294 40.2142 37.2205 40.6768C37.4115 41.1393 37.4615 41.6484 37.3641 42.1395C37.2667 42.6306 37.0263 43.0817 36.6733 43.4357C36.3203 43.7898 35.8705 44.0309 35.3808 44.1286C34.8912 44.2263 34.3836 44.1761 33.9224 43.9845C33.4611 43.7929 33.0669 43.4684 32.7895 43.0521C32.5121 42.6357 32.3641 42.1463 32.3641 41.6456C32.366 40.9747 32.6326 40.3319 33.1056 39.8576C33.5785 39.3832 34.2195 39.1159 34.8884 39.1139ZM88.8447 81.4304C88.8411 81.5388 88.7956 81.6417 88.718 81.7172C88.6403 81.7928 88.5364 81.8351 88.4282 81.8354H30.5593C30.4531 81.8325 30.352 81.7889 30.2769 81.7136C30.2017 81.6382 30.1583 81.5369 30.1554 81.4304V48.2911H88.8447V81.4304Z" fill="#1E2027"></path> <path d="M40 71.8667H43.3708V66.7556L46.2892 63.8889H46.8774L50.9722 71.8667H54.6824L49.0718 60.9778L53.9132 56H49.9768L43.3708 62.5556V56H40V71.8667Z" fill="#1E2027"></path> <path d="M57.7575 75L64.5218 55H61.9428L55.1106 75H57.7575Z" fill="#1E2027"></path> <path d="M76.4934 66.8C76.1541 68.3111 75.0003 69.2 73.2583 69.2C70.3626 69.2 68.9826 66.8667 68.9826 63.9333C68.9826 61 70.3626 58.6667 73.2583 58.6667C74.9098 58.6667 75.9279 59.3111 76.3124 60.6222H79.8416C79.2987 57.7111 76.8328 55.7111 73.2583 55.7111C68.3491 55.7111 65.5213 59.0667 65.5213 63.9333C65.5213 68.8 68.3265 72.1556 73.2583 72.1556C77.0364 72.1556 79.5249 69.9556 80 66.8H76.4934Z" fill="#1E2027"></path> <rect x="27" y="35" width="4" height="4" fill="#1E2027"></rect> <rect width="4" height="4" transform="matrix(-1 0 0 1 92 35)" fill="#1E2027"></rect> <path d="M27 81L30 82L31 85H27V81Z" fill="#1E2027"></path> <path d="M92 81L89 82L88 85H92V81Z" fill="#1E2027"></path> </svg> 